<?xml version="1.0" encoding="UTF-8"?>
<svg id="Layer_2" data-name="Layer 2" xmlns="http://www.w3.org/2000/svg" xmlns:xlink="http://www.w3.org/1999/xlink" viewBox="0 0 922.01 479.53">
  <defs>
    <style>
      .cls-1 {
        fill: #930c01;
      }

      .cls-2 {
        fill: url(#linear-gradient);
      }
    </style>
    <linearGradient id="linear-gradient" x1=".51" y1="238.9" x2="922" y2="240.87" gradientUnits="userSpaceOnUse">
      <stop offset="0" stop-color="#c80005"/>
      <stop offset=".5" stop-color="#801000"/>
      <stop offset="1" stop-color="#c70005"/>
    </linearGradient>
  </defs>
  <g id="Layer_1-2" data-name="Layer 1">
    <g id="_4P1lUx.tif" data-name="4P1lUx.tif">
      <g>
        <path class="cls-1" d="M409.56,478.8h-125.86c41.94-.01,83.93,0,125.86,0Z"/>
        <path class="cls-2" d="M922.01,236.09l-59.34,95.95-333.24-.07c25.34,15.62,52.07,30.01,80.14,40.23,7.12,2.58,30.02,10.71,36.24,10.71h179.3l-56.94,96.38c-12.64.7-651.61-.33-755.19-.49-5.78,0-9.89,0-12.13,0h-.85l55.44-95.88h343.63c.12,0-26.38-33.78-38.46-50.94l-264.7-.49,56.43-95.39h173.31c-.8-61.59,16.04-121.33,49.53-172.7,31.83-48.8,63.2-75.17,125.05-58.28,41.3,11.29,78.52,39.73,107.65,70.21l-36.5,142.79c-1.77.36-12.58-12.88-16.95-17.5-37.63-39.81-102.37-90.88-160.53-66.57-14.35,6-29.47,19.14-30.02,35.91-.73,22.61,27.02,49.43,40.69,65.64l517.44.5Z"/>
      </g>
    </g>
  </g>
</svg>